<svg xmlns="http://www.w3.org/2000/svg" viewBox="0 0 32 32" fill="none">
  <rect width="32" height="32" rx="8" fill="#141414"/>
  <path d="M7.5 6.5h10.2l3.8 3.8V23.5a2 2 0 0 1-2 2H7.5a2 2 0 0 1-2-2V8.5a2 2 0 0 1 2-2Z" fill="#fafafa" fill-opacity="0.95"/>
  <path d="M17.7 6.5v3.8h3.8" stroke="#141414" stroke-width="1.2" stroke-linejoin="round"/>
  <path d="M9.2 13.8h8.1M9.2 16.8h6.2M9.2 19.8h7.4" stroke="#141414" stroke-width="1.15" stroke-linecap="round" stroke-opacity="0.55"/>
  <circle cx="24.2" cy="11.8" r="2.6" fill="#34d399"/>
  <circle cx="26.4" cy="20.2" r="1.55" fill="#fafafa" fill-opacity="0.45"/>
  <circle cx="21.2" cy="22.4" r="1.55" fill="#fafafa" fill-opacity="0.45"/>
  <path d="M20.2 11.8h2.4M24.2 14.6v3.1M22.1 21.1l1.6-1.4" stroke="#34d399" stroke-width="0.95" stroke-linecap="round" stroke-opacity="0.85"/>
</svg>
